<svg width="40" height="40" viewBox="0 0 40 40" fill="none" xmlns="http://www.w3.org/2000/svg">
<path d="M20 3.33337V13.3334L23.3333 10M20 13.3334L16.6667 10" stroke="black" stroke-width="1.5" stroke-linecap="round" stroke-linejoin="round"/>
<path d="M8.33333 19.9999V13.3333C8.33333 9.98328 8.33333 7.21661 13.3333 6.73328M31.6667 19.9999V13.3333C31.6667 9.98328 31.6667 7.21661 26.6667 6.73328M11.6667 19.9999C5 19.9999 5 22.9833 5 26.6666V28.3333C5 32.9333 5 36.6666 13.3333 36.6666H26.6667C33.3333 36.6666 35 32.9333 35 28.3333V26.6666C35 22.9833 35 19.9999 28.3333 19.9999C26.6667 19.9999 26.2 20.3499 25.3333 20.9999L23.6333 22.7999C23.166 23.2971 22.6017 23.6933 21.9754 23.9641C21.3491 24.2349 20.674 24.3746 19.9917 24.3746C19.3093 24.3746 18.6342 24.2349 18.0079 23.9641C17.3816 23.6933 16.8174 23.2971 16.35 22.7999L14.6667 20.9999C13.8 20.3499 13.3333 19.9999 11.6667 19.9999Z" stroke="black" stroke-width="1.5" stroke-miterlimit="10" stroke-linecap="round" stroke-linejoin="round"/>
</svg>
