<svg width="242" height="551" fill="none" xmlns="http://www.w3.org/2000/svg"><path d="M100.005 72.5L49.551 0 .005 72.5l49.546 72.499 50.454-72.5z" fill="url(#paint0_linear_492_390)" fill-opacity=".1"/><path d="M173.005 173.499l-50.454-72.5-49.546 72.5 49.546 72.5 50.454-72.5z" fill="url(#paint1_linear_492_390)" fill-opacity=".2"/><path d="M173.005 377.499l-50.454-72.5-49.546 72.5 49.546 72.5 50.454-72.5z" fill="url(#paint2_linear_492_390)" fill-opacity=".2"/><path d="M241.005 478.499l-50.454-72.5-49.546 72.5 49.546 72.5 50.454-72.5z" fill="url(#paint3_linear_492_390)" fill-opacity=".3"/><path d="M241.005 275.499l-50.454-72.5-49.546 72.5 49.546 72.5 50.454-72.5z" fill="url(#paint4_linear_492_390)" fill-opacity=".3"/><path d="M241.005 72.5L190.551 0l-49.546 72.5 49.546 72.499 50.454-72.5z" fill="url(#paint5_linear_492_390)" fill-opacity=".3"/><path d="M100.005 275.499l-50.454-72.5-49.546 72.5 49.546 72.5 50.454-72.5z" fill="url(#paint6_linear_492_390)" fill-opacity=".1"/><path d="M100.005 478.499l-50.454-72.5-49.546 72.5 49.546 72.5 50.454-72.5z" fill="url(#paint7_linear_492_390)" fill-opacity=".1"/><defs><linearGradient id="paint0_linear_492_390" x1=".005" y1="144.999" x2="118.065" y2="128.393" gradientUnits="userSpaceOnUse"><stop stop-color="#192964"/><stop offset="1" stop-color="#0072A2"/></linearGradient><linearGradient id="paint1_linear_492_390" x1="73.005" y1="245.999" x2="191.065" y2="229.393" gradientUnits="userSpaceOnUse"><stop stop-color="#192964"/><stop offset="1" stop-color="#0072A2"/></linearGradient><linearGradient id="paint2_linear_492_390" x1="73.005" y1="449.999" x2="191.065" y2="433.393" gradientUnits="userSpaceOnUse"><stop stop-color="#192964"/><stop offset="1" stop-color="#0072A2"/></linearGradient><linearGradient id="paint3_linear_492_390" x1="141.005" y1="550.999" x2="259.065" y2="534.393" gradientUnits="userSpaceOnUse"><stop stop-color="#192964"/><stop offset="1" stop-color="#0072A2"/></linearGradient><linearGradient id="paint4_linear_492_390" x1="141.005" y1="347.999" x2="259.065" y2="331.393" gradientUnits="userSpaceOnUse"><stop stop-color="#192964"/><stop offset="1" stop-color="#0072A2"/></linearGradient><linearGradient id="paint5_linear_492_390" x1="141.005" y1="144.999" x2="259.065" y2="128.393" gradientUnits="userSpaceOnUse"><stop stop-color="#192964"/><stop offset="1" stop-color="#0072A2"/></linearGradient><linearGradient id="paint6_linear_492_390" x1=".005" y1="347.999" x2="118.065" y2="331.393" gradientUnits="userSpaceOnUse"><stop stop-color="#192964"/><stop offset="1" stop-color="#0072A2"/></linearGradient><linearGradient id="paint7_linear_492_390" x1=".005" y1="550.999" x2="118.065" y2="534.393" gradientUnits="userSpaceOnUse"><stop stop-color="#192964"/><stop offset="1" stop-color="#0072A2"/></linearGradient></defs></svg>