<svg width="242" height="551" viewBox="0 0 242 551" fill="none" xmlns="http://www.w3.org/2000/svg">
<path d="M100.005 72.4991L49.5508 -0.000854492L0.00537109 72.4991L49.5508 144.999L100.005 72.4991Z" fill="url(#paint0_linear_492_390)" fill-opacity="0.1"/>
<path d="M173.005 173.499L122.551 100.999L73.0054 173.499L122.551 245.999L173.005 173.499Z" fill="url(#paint1_linear_492_390)" fill-opacity="0.2"/>
<path d="M173.005 377.499L122.551 304.999L73.0054 377.499L122.551 449.999L173.005 377.499Z" fill="url(#paint2_linear_492_390)" fill-opacity="0.2"/>
<path d="M241.005 478.499L190.551 405.999L141.005 478.499L190.551 550.999L241.005 478.499Z" fill="url(#paint3_linear_492_390)" fill-opacity="0.3"/>
<path d="M241.005 275.499L190.551 202.999L141.005 275.499L190.551 347.999L241.005 275.499Z" fill="url(#paint4_linear_492_390)" fill-opacity="0.3"/>
<path d="M241.005 72.4991L190.551 -0.000854492L141.005 72.4991L190.551 144.999L241.005 72.4991Z" fill="url(#paint5_linear_492_390)" fill-opacity="0.3"/>
<path d="M100.005 275.499L49.5508 202.999L0.00537109 275.499L49.5508 347.999L100.005 275.499Z" fill="url(#paint6_linear_492_390)" fill-opacity="0.1"/>
<path d="M100.005 478.499L49.5508 405.999L0.00537109 478.499L49.5508 550.999L100.005 478.499Z" fill="url(#paint7_linear_492_390)" fill-opacity="0.1"/>
<defs>
<linearGradient id="paint0_linear_492_390" x1="0.0053696" y1="144.999" x2="118.065" y2="128.393" gradientUnits="userSpaceOnUse">
<stop stop-color="#192964"/>
<stop offset="1" stop-color="#0072A2"/>
</linearGradient>
<linearGradient id="paint1_linear_492_390" x1="73.0054" y1="245.999" x2="191.065" y2="229.393" gradientUnits="userSpaceOnUse">
<stop stop-color="#192964"/>
<stop offset="1" stop-color="#0072A2"/>
</linearGradient>
<linearGradient id="paint2_linear_492_390" x1="73.0054" y1="449.999" x2="191.065" y2="433.393" gradientUnits="userSpaceOnUse">
<stop stop-color="#192964"/>
<stop offset="1" stop-color="#0072A2"/>
</linearGradient>
<linearGradient id="paint3_linear_492_390" x1="141.005" y1="550.999" x2="259.065" y2="534.393" gradientUnits="userSpaceOnUse">
<stop stop-color="#192964"/>
<stop offset="1" stop-color="#0072A2"/>
</linearGradient>
<linearGradient id="paint4_linear_492_390" x1="141.005" y1="347.999" x2="259.065" y2="331.393" gradientUnits="userSpaceOnUse">
<stop stop-color="#192964"/>
<stop offset="1" stop-color="#0072A2"/>
</linearGradient>
<linearGradient id="paint5_linear_492_390" x1="141.005" y1="144.999" x2="259.065" y2="128.393" gradientUnits="userSpaceOnUse">
<stop stop-color="#192964"/>
<stop offset="1" stop-color="#0072A2"/>
</linearGradient>
<linearGradient id="paint6_linear_492_390" x1="0.0053696" y1="347.999" x2="118.065" y2="331.393" gradientUnits="userSpaceOnUse">
<stop stop-color="#192964"/>
<stop offset="1" stop-color="#0072A2"/>
</linearGradient>
<linearGradient id="paint7_linear_492_390" x1="0.0053696" y1="550.999" x2="118.065" y2="534.393" gradientUnits="userSpaceOnUse">
<stop stop-color="#192964"/>
<stop offset="1" stop-color="#0072A2"/>
</linearGradient>
</defs>
</svg>
