<svg width="40" height="40" viewBox="0 0 40 40" fill="none" xmlns="http://www.w3.org/2000/svg">
<path d="M13.3333 19C13.3333 20.2833 14.3333 21.3333 15.55 21.3333H18.05C19.1167 21.3333 19.9833 20.4167 19.9833 19.3C19.9833 18.0833 19.45 17.65 18.6667 17.3667L14.6667 15.9667C13.8667 15.6833 13.3333 15.25 13.3333 14.0333C13.3333 12.9167 14.2 12 15.2667 12H17.7667C19 12.0167 20 13.05 20 14.3334M16.6667 21.4167V22.65M16.6667 10.6833V11.9833" stroke="black" stroke-width="1.5" stroke-linecap="round" stroke-linejoin="round"/>
<path d="M21.6333 33.1334C23.1333 35.25 25.5833 36.6334 28.3833 36.6334C32.9333 36.6334 36.6333 32.9334 36.6333 28.3834C36.6333 25.6167 35.2667 23.1667 33.1833 21.6667M16.65 29.9667C20.1818 29.9667 23.5689 28.5637 26.0663 26.0663C28.5637 23.569 29.9667 20.1818 29.9667 16.65C29.9667 13.1182 28.5637 9.73109 26.0663 7.23373C23.5689 4.73638 20.1818 3.33337 16.65 3.33337C13.1182 3.33337 9.73106 4.73638 7.2337 7.23373C4.73634 9.73109 3.33334 13.1182 3.33334 16.65C3.33334 20.1818 4.73634 23.569 7.2337 26.0663C9.73106 28.5637 13.1182 29.9667 16.65 29.9667V29.9667Z" stroke="black" stroke-width="1.5" stroke-linecap="round" stroke-linejoin="round"/>
</svg>
