<svg width="44" height="40" viewBox="0 0 44 40" fill="currentColor" xmlns="http://www.w3.org/2000/svg">
<path d="M21.5517 13.3334V3.33337L17.9597 6.66671M21.5517 3.33337L25.1437 6.66671" stroke="black" stroke-width="1.5" stroke-linecap="round" stroke-linejoin="round"/>
<path d="M8.97989 20V16.6667C8.97989 13.3167 8.97989 10.55 14.3678 10.0667M34.1236 20V16.6667C34.1236 13.3167 34.1236 10.55 28.7356 10.0667M12.5718 20C5.38794 20 5.38794 22.9833 5.38794 26.6667V28.3333C5.38794 32.9333 5.38794 36.6667 14.3678 36.6667H28.7356C35.9196 36.6667 37.7155 32.9333 37.7155 28.3333V26.6667C37.7155 22.9833 37.7155 20 30.5316 20C28.7356 20 28.2328 20.35 27.2989 21L25.467 22.8C24.9633 23.2971 24.3553 23.6933 23.6804 23.9641C23.0055 24.2349 22.278 24.3746 21.5428 24.3746C20.8075 24.3746 20.08 24.2349 19.4051 23.9641C18.7302 23.6933 18.1222 23.2971 17.6185 22.8L15.8046 21C14.8707 20.35 14.3678 20 12.5718 20Z" stroke="currentColor" stroke-width="1.5" stroke-miterlimit="10" stroke-linecap="round" stroke-linejoin="round"/>
</svg>
