<svg width="50" height="51" viewBox="0 0 50 51" fill="none" xmlns="http://www.w3.org/2000/svg">
<path d="M0.643511 20L33.6435 7C53.7369 19.0024 45.8199 24.0644 30.6435 33C20.1619 45.9584 13.3195 44.3842 1.64351 33.5C-0.287268 28.7128 -0.373233 25.751 0.643511 20Z" fill="white"/>
<path d="M1.02812 32.2919C2.59622 37.4182 5.7687 41.9057 10.0785 45.0938C14.3884 48.2819 19.6079 50.0021 24.9687 50.0012C38.7937 50.0012 50 38.8075 50 25.0012C50 11.195 38.7938 0.00122258 24.9719 0.00122258C18.6259 -0.00123237 12.516 2.40797 7.87955 6.74099C3.24308 11.074 0.42645 17.007 0 23.3387L0.009375 23.3575L13.4594 28.8856C14.6724 28.0825 16.1092 27.6853 17.5625 27.7512L23.6875 18.8637L23.6844 18.7387C23.6869 16.218 24.6891 13.8011 26.4712 12.0184C28.2534 10.2357 30.6699 9.23266 33.1906 9.22935C35.7114 9.23266 38.1279 10.2357 39.91 12.0184C41.6921 13.8011 42.6944 16.218 42.6969 18.7387C42.6959 20.0054 42.4422 21.2591 41.9507 22.4265C41.4592 23.5939 40.7397 24.6515 39.8343 25.5373C38.9289 26.4232 37.8559 27.1195 36.6781 27.5855C35.5003 28.0515 34.2414 28.2778 32.975 28.2512L24.2125 34.5012C24.2422 35.6589 23.982 36.8057 23.4556 37.8372C22.9292 38.8688 22.1533 39.7523 21.1984 40.4076C20.2435 41.0628 19.1399 41.4689 17.9881 41.589C16.8362 41.709 15.6726 41.5392 14.6031 41.095C13.5766 40.6672 12.6682 39.9987 11.9546 39.1458C11.2409 38.2929 10.7431 37.2808 10.5031 36.195L1.03125 32.2919H1.02812Z" fill="url(#paint0_linear_256_339)"/>
<path d="M15.2126 39.6356C16.5145 40.1326 17.9589 40.1029 19.2393 39.5528C20.5198 39.0026 21.5356 37.9754 22.0713 36.6889C22.607 35.4024 22.6206 33.9578 22.1091 32.6615C21.5975 31.3651 20.6012 30.319 19.3313 29.745C18.0722 29.2196 16.6595 29.1972 15.3844 29.6825L18.5813 31.0075C19.0594 31.2065 19.4936 31.4978 19.8591 31.8646C20.2247 32.2315 20.5144 32.6667 20.7117 33.1455C20.909 33.6243 21.0101 34.1373 21.0092 34.6552C21.0083 35.173 20.9053 35.6856 20.7063 36.1637C20.5073 36.6418 20.216 37.076 19.8492 37.4416C19.4823 37.8071 19.0471 38.0968 18.5683 38.2941C18.0895 38.4915 17.5765 38.5925 17.0586 38.5916C16.5408 38.5907 16.0281 38.4878 15.5501 38.2887L12.4563 37.0075C13.0193 38.1929 14.0011 39.128 15.2126 39.6325V39.6356ZM26.8563 18.7387C26.8571 20.419 27.5246 22.0304 28.7121 23.2191C29.8997 24.4079 31.5104 25.0769 33.1907 25.0794C34.871 25.0769 36.4817 24.4079 37.6692 23.2191C38.8568 22.0304 39.5242 20.419 39.5251 18.7387C39.5226 17.0595 38.8544 15.4498 37.667 14.2624C36.4796 13.075 34.8699 12.4068 33.1907 12.4044C31.5115 12.4068 29.9017 13.075 28.7143 14.2624C27.527 15.4498 26.8588 17.0595 26.8563 18.7387V18.7387ZM33.2001 13.9669C33.8255 13.9673 34.4447 14.0909 35.0224 14.3306C35.6 14.5703 36.1248 14.9214 36.5667 15.364C37.0087 15.8065 37.3592 16.3317 37.5981 16.9097C37.8371 17.4877 37.9599 18.1071 37.9594 18.7325C37.959 19.3579 37.8354 19.9771 37.5957 20.5548C37.356 21.1324 37.0049 21.6572 36.5623 22.0992C36.1198 22.5411 35.5946 22.8916 35.0166 23.1305C34.4386 23.3695 33.8192 23.4923 33.1938 23.4919C31.9307 23.491 30.7197 22.9885 29.8271 22.0947C28.9346 21.201 28.4336 19.9893 28.4344 18.7262C28.4353 17.4631 28.9378 16.2521 29.8316 15.3596C30.7253 14.467 31.937 13.966 33.2001 13.9669V13.9669Z" fill="url(#paint1_linear_256_339)"/>
<defs>
<linearGradient id="paint0_linear_256_339" x1="25" y1="0.0012207" x2="25" y2="50.0012" gradientUnits="userSpaceOnUse">
<stop offset="0.135417" stop-color="#13192E"/>
<stop offset="1" stop-color="#0073A3"/>
</linearGradient>
<linearGradient id="paint1_linear_256_339" x1="25.9907" y1="12.4044" x2="25.9907" y2="39.988" gradientUnits="userSpaceOnUse">
<stop stop-color="#0F2E4A"/>
<stop offset="1" stop-color="#07547A"/>
</linearGradient>
</defs>
</svg>
