<svg width="234" height="586" fill="none" xmlns="http://www.w3.org/2000/svg"><path d="M172.143 193.188l16.238-28.126.433.25L196.5 152l7.686 13.312.433-.25 16.238 28.126-.433.25 7.686 13.312h-15.372v.5h-32.476v-.5H164.89l7.686-13.312-.433-.25z" stroke="url(#paint0_linear_599_183)" stroke-dasharray="30 30"/><path d="M19.6 150.955l19.643-10.093.228.444 9.051-4.65-.498 10.163.5.025-1.08 22.057-.5-.025-.498 10.164-8.553-5.513-.27.42-18.563-11.964.271-.42-8.553-5.513 9.05-4.651-.228-.444z" stroke="url(#paint1_linear_599_183)" stroke-dasharray="30 30"/><path d="M128.451 53.337l-1.757-24.83.498-.035-.817-11.55 10.412 5.067.219-.45 22.381 10.893-.218.45 10.412 5.067-9.595 6.483.28.415-20.624 13.936-.28-.414-9.595 6.484-.817-11.551-.499.035z" stroke="url(#paint2_linear_599_183)" stroke-dasharray="30 30"/><path d="M92.898 360.457l-30.436-11.328.175-.469-14.407-5.362 11.847-9.795-.319-.386 25.03-20.694.318.385 11.847-9.795 2.56 15.157.492-.083 5.408 32.023-.493.083 2.559 15.157-14.406-5.362-.175.469z" stroke="url(#paint3_linear_599_183)" stroke-dasharray="30 30"/><path d="M122.917 541.397l-11.488-42.318.482-.131-5.517-20.323 20.359 5.384.128-.484 42.392 11.21-.128.483 20.359 5.384-14.842 14.939.355.353-30.904 31.108-.355-.353-14.841 14.94-5.517-20.323-.483.131z" stroke="url(#paint4_linear_599_183)" stroke-dasharray="30 30"/><defs><linearGradient id="paint0_linear_599_183" x1="159" y1="226" x2="245.69" y2="208.319" gradientUnits="userSpaceOnUse"><stop stop-color="#192964"/><stop offset="1" stop-color="#0072A2"/></linearGradient><linearGradient id="paint1_linear_599_183" x1="0" y1="164.867" x2="56.063" y2="186.698" gradientUnits="userSpaceOnUse"><stop stop-color="#192964"/><stop offset="1" stop-color="#0072A2"/></linearGradient><linearGradient id="paint2_linear_599_183" x1="134.186" y1="79.815" x2="181.652" y2="31.384" gradientUnits="userSpaceOnUse"><stop stop-color="#192964"/><stop offset="1" stop-color="#0072A2"/></linearGradient><linearGradient id="paint3_linear_599_183" x1="127.441" y1="367.953" x2="95.572" y2="285.417" gradientUnits="userSpaceOnUse"><stop stop-color="#192964"/><stop offset="1" stop-color="#0072A2"/></linearGradient><linearGradient id="paint4_linear_599_183" x1="141.84" y1="585.21" x2="207.398" y2="485.347" gradientUnits="userSpaceOnUse"><stop stop-color="#192964"/><stop offset="1" stop-color="#0072A2"/></linearGradient></defs></svg>