<svg width="214" height="583" fill="none" xmlns="http://www.w3.org/2000/svg"><path d="M92.758 556.118l-26.704-28.119.362-.345-12.756-13.431 18.01-4.331-.116-.487 37.704-9.067.117.487 18.01-4.332-5.255 17.763.48.142-11 37.186-.479-.142-5.255 17.763-12.755-13.432-.363.345z" stroke="url(#paint0_linear_599_182)" stroke-dasharray="30 30"/><path d="M163.917 401.282l7.527-19.99.468.176 3.458-9.185 6.225 7.588.387-.318 13.549 16.514-.387.317 6.225 7.587-9.683 1.598.081.493-21.075 3.477-.082-.493-9.683 1.597 3.458-9.184-.468-.177z" stroke="url(#paint1_linear_599_182)" stroke-dasharray="30 30"/><path d="M42.05 313.531l-25.881-18.165.287-.409-12.232-8.585 13.55-6.301-.21-.453 28.671-13.331.211.453 13.55-6.3-1.318 14.885.498.044-2.79 31.496-.499-.044-1.319 14.885-12.231-8.585-.288.41z" stroke="url(#paint2_linear_599_182)" stroke-dasharray="30 30"/><path d="M193.656 162.217l-21.072 17.564-.32-.384-9.871 8.228-2.19-12.663-.492.086-4.675-27.031.492-.085-2.189-12.663 12.06 4.435.173-.469 25.747 9.466-.173.47 12.061 4.434-9.871 8.228.32.384z" stroke="url(#paint3_linear_599_182)" stroke-dasharray="30 30"/><path d="M69.557 27.369l11.78 26.268-.456.204 5.536 12.344-13.458-1.378-.05.498-28.64-2.932.051-.497-13.458-1.378 7.922-10.966-.405-.293 16.859-23.336.405.292 7.922-10.966 5.536 12.344.456-.204z" stroke="url(#paint4_linear_599_182)" stroke-dasharray="30 30"/><defs><linearGradient id="paint0_linear_599_182" x1="125.878" y1="582.281" x2="134.995" y2="477.028" gradientUnits="userSpaceOnUse"><stop stop-color="#192964"/><stop offset="1" stop-color="#0072A2"/></linearGradient><linearGradient id="paint1_linear_599_182" x1="158.901" y1="423.984" x2="213.267" y2="403.228" gradientUnits="userSpaceOnUse"><stop stop-color="#192964"/><stop offset="1" stop-color="#0072A2"/></linearGradient><linearGradient id="paint2_linear_599_182" x1="72.743" y1="329.096" x2="63.044" y2="243.503" gradientUnits="userSpaceOnUse"><stop stop-color="#192964"/><stop offset="1" stop-color="#0072A2"/></linearGradient><linearGradient id="paint3_linear_599_182" x1="213.641" y1="140.034" x2="139.759" y2="128.781" gradientUnits="userSpaceOnUse"><stop stop-color="#192964"/><stop offset="1" stop-color="#0072A2"/></linearGradient><linearGradient id="paint4_linear_599_182" x1="52.802" y1=".891" x2="20.505" y2="72.362" gradientUnits="userSpaceOnUse"><stop stop-color="#192964"/><stop offset="1" stop-color="#0072A2"/></linearGradient></defs></svg>