<svg width="191" height="528" fill="none" xmlns="http://www.w3.org/2000/svg"><path d="M134.876 4.068l47.308 37.578-51.599 30.743-47.347-36.957 51.638-31.364z" stroke="url(#paint0_linear_576_105)" stroke-linecap="round"/><path d="M91.352 451.923l10.17 53.595-53.408-9.425-10.563-53.194 53.8 9.024z" stroke="url(#paint1_linear_576_105)" stroke-linecap="round"/><path d="M8.386 353.933l31.674-28.636 15.463 39.534-31.246 28.734-15.891-39.632z" stroke="url(#paint2_linear_576_105)" stroke-linecap="round"/><path d="M123.228 294.287l9.643-48.379 41.579 26.007-9.177 48.176-42.045-25.804z" stroke="url(#paint3_linear_576_105)" stroke-linecap="round"/><path d="M61.587 124.146l48.733 7.656-24.284 42.608-48.511-7.198 24.062-43.066z" stroke="url(#paint4_linear_576_105)" stroke-linecap="round"/><defs><linearGradient id="paint0_linear_576_105" x1="81.112" y1="69.282" x2="97.535" y2="-10.66" gradientUnits="userSpaceOnUse"><stop stop-color="#192964"/><stop offset="1" stop-color="#0072A2"/></linearGradient><linearGradient id="paint1_linear_576_105" x1="16.129" y1="464.783" x2="74.516" y2="419.827" gradientUnits="userSpaceOnUse"><stop stop-color="#192964"/><stop offset="1" stop-color="#0072A2"/></linearGradient><linearGradient id="paint2_linear_576_105" x1="47.632" y1="398.965" x2="-6.205" y2="378.263" gradientUnits="userSpaceOnUse"><stop stop-color="#192964"/><stop offset="1" stop-color="#0072A2"/></linearGradient><linearGradient id="paint3_linear_576_105" x1="190.651" y1="309.007" x2="126.462" y2="326.903" gradientUnits="userSpaceOnUse"><stop stop-color="#192964"/><stop offset="1" stop-color="#0072A2"/></linearGradient><linearGradient id="paint4_linear_576_105" x1="49.639" y1="192.115" x2="29.131" y2="128.712" gradientUnits="userSpaceOnUse"><stop stop-color="#192964"/><stop offset="1" stop-color="#0072A2"/></linearGradient></defs></svg>