<svg width="197" height="562" fill="none" xmlns="http://www.w3.org/2000/svg"><path d="M114.43 81.978l-10.441-58.42 57.989 10.873 10.873 57.988-58.421-10.44z" stroke="url(#paint0_linear_576_104)" stroke-linecap="round"/><path d="M60.748 252.321l38.125 13.776-26.237 30.589-38.016-13.373 26.128-30.992z" stroke="url(#paint1_linear_576_104)" stroke-linecap="round"/><path d="M23.879 413.085l46.191-38.943 19.931 56.66-45.59 39.104-20.532-56.821z" stroke="url(#paint2_linear_576_104)" stroke-linecap="round"/><path d="M138.766 519.612l29.907 20.209-29.322 20.684-29.902-19.837 29.317-21.056z" stroke="url(#paint3_linear_576_104)" stroke-linecap="round"/><path d="M10.215 128.585l11.628-36.782 30.098 23.767-11.249 36.664-30.477-23.649z" stroke="url(#paint4_linear_576_104)" stroke-linecap="round"/><defs><linearGradient id="paint0_linear_576_104" x1="196.409" y1="68.862" x2="132.372" y2="117.089" gradientUnits="userSpaceOnUse"><stop stop-color="#192964"/><stop offset="1" stop-color="#0072A2"/></linearGradient><linearGradient id="paint1_linear_576_104" x1="40.51" y1="305.294" x2="33.851" y2="250.943" gradientUnits="userSpaceOnUse"><stop stop-color="#192964"/><stop offset="1" stop-color="#0072A2"/></linearGradient><linearGradient id="paint2_linear_576_104" x1="77.171" y1="478.684" x2="2.057" y2="446.775" gradientUnits="userSpaceOnUse"><stop stop-color="#192964"/><stop offset="1" stop-color="#0072A2"/></linearGradient><linearGradient id="paint3_linear_576_104" x1="109.739" y1="560.929" x2="115.847" y2="512.556" gradientUnits="userSpaceOnUse"><stop stop-color="#192964"/><stop offset="1" stop-color="#0072A2"/></linearGradient><linearGradient id="paint4_linear_576_104" x1="61.365" y1="145.786" x2="9.943" y2="154.213" gradientUnits="userSpaceOnUse"><stop stop-color="#192964"/><stop offset="1" stop-color="#0072A2"/></linearGradient></defs></svg>